<?xml version="1.0" encoding="UTF-8"?>
<!DOCTYPE svg PUBLIC "-//W3C//DTD SVG 1.1//EN" "http://www.w3.org/Graphics/SVG/1.1/DTD/svg11.dtd">
<svg xmlns="http://www.w3.org/2000/svg" version="1.1" width="5216px" height="772px" style="shape-rendering:geometricPrecision; text-rendering:geometricPrecision; image-rendering:optimizeQuality; fill-rule:evenodd; clip-rule:evenodd" xmlns:xlink="http://www.w3.org/1999/xlink">
<g><path style="opacity:0.997" fill="#29c8a1" d="M 140.5,-0.5 C 448.5,-0.5 756.5,-0.5 1064.5,-0.5C 1111.61,6.11365 1147.44,29.7803 1172,70.5C 1180.66,86.1445 1186.33,102.811 1189,120.5C 1190.49,337.48 1190.99,554.48 1190.5,771.5C 1143.17,771.5 1095.83,771.5 1048.5,771.5C 1048.5,561.5 1048.5,351.5 1048.5,141.5C 750.166,141.333 451.833,141.5 153.5,142C 147.667,143.833 143.833,147.667 142,153.5C 141.5,359.5 141.333,565.5 141.5,771.5C 94.1667,771.5 46.8333,771.5 -0.5,771.5C -0.5,561.167 -0.5,350.833 -0.5,140.5C 42.5013,140.667 85.5013,140.5 128.5,140C 134.333,138.167 138.167,134.333 140,128.5C 140.5,85.5013 140.667,42.5013 140.5,-0.5 Z"/></g>
<g><path style="opacity:0.995" fill="#29c9a1" d="M 1501.5,-0.5 C 1851.5,-0.5 2201.5,-0.5 2551.5,-0.5C 2551.5,46.8333 2551.5,94.1667 2551.5,141.5C 2205.83,141.333 1860.17,141.5 1514.5,142C 1509.09,143.743 1505.26,147.243 1503,152.5C 1502.33,307.5 1502.33,462.5 1503,617.5C 1504.83,623.333 1508.67,627.167 1514.5,629C 1860.17,629.5 2205.83,629.667 2551.5,629.5C 2551.5,676.833 2551.5,724.167 2551.5,771.5C 2201.5,771.5 1851.5,771.5 1501.5,771.5C 1501.67,729.165 1501.5,686.832 1501,644.5C 1499.39,638.119 1495.56,633.619 1489.5,631C 1446.17,630.5 1402.83,630.333 1359.5,630.5C 1359.5,467.167 1359.5,303.833 1359.5,140.5C 1402.83,140.667 1446.17,140.5 1489.5,140C 1496.02,137.794 1499.85,133.294 1501,126.5C 1501.5,84.168 1501.67,41.8346 1501.5,-0.5 Z"/></g>
<g><path style="opacity:0.996" fill="#29c9a1" d="M 2833.5,-0.5 C 3183.5,-0.5 3533.5,-0.5 3883.5,-0.5C 3883.5,46.8333 3883.5,94.1667 3883.5,141.5C 3537.83,141.333 3192.17,141.5 2846.5,142C 2840.67,143.833 2836.83,147.667 2835,153.5C 2834.33,307.833 2834.33,462.167 2835,616.5C 2836.5,623.333 2840.67,627.5 2847.5,629C 3145.5,629.5 3443.5,629.667 3741.5,629.5C 3741.5,571.833 3741.5,514.167 3741.5,456.5C 3554.5,456.5 3367.5,456.5 3180.5,456.5C 3180.5,409.167 3180.5,361.833 3180.5,314.5C 3372.17,314.333 3563.83,314.5 3755.5,315C 3815.98,323.309 3856.48,356.143 3877,413.5C 3879.14,421.064 3880.81,428.731 3882,436.5C 3883.14,472.477 3883.64,508.477 3883.5,544.5C 3883.33,577.5 3883.17,610.5 3883,643.5C 3876.04,696.433 3848.87,734.933 3801.5,759C 3787.23,765.062 3772.57,769.229 3757.5,771.5C 3449.5,771.5 3141.5,771.5 2833.5,771.5C 2833.67,728.499 2833.5,685.499 2833,642.5C 2831.17,636.667 2827.33,632.833 2821.5,631C 2778.5,630.5 2735.5,630.333 2692.5,630.5C 2692.5,467.167 2692.5,303.833 2692.5,140.5C 2735.5,140.667 2778.5,140.5 2821.5,140C 2827.33,138.167 2831.17,134.333 2833,128.5C 2833.5,85.5013 2833.67,42.5013 2833.5,-0.5 Z"/></g>
<g><path style="opacity:0.996" fill="#29c9a1" d="M 4165.5,-0.5 C 4473.5,-0.5 4781.5,-0.5 5089.5,-0.5C 5143.59,7.75551 5182.09,36.7555 5205,86.5C 5210.09,99.5512 5213.59,112.885 5215.5,126.5C 5215.5,341.5 5215.5,556.5 5215.5,771.5C 5168.17,771.5 5120.83,771.5 5073.5,771.5C 5073.5,561.5 5073.5,351.5 5073.5,141.5C 4775.17,141.333 4476.83,141.5 4178.5,142C 4172.44,144.619 4168.61,149.119 4167,155.5C 4166.5,360.833 4166.33,566.166 4166.5,771.5C 4119.17,771.5 4071.83,771.5 4024.5,771.5C 4024.5,561.167 4024.5,350.833 4024.5,140.5C 4067.5,140.667 4110.5,140.5 4153.5,140C 4158.91,138.257 4162.74,134.757 4165,129.5C 4165.5,86.1679 4165.67,42.8346 4165.5,-0.5 Z"/></g>
<g><path style="opacity:0.995" fill="#29c9a2" d="M 4545.5,771.5 C 4478.17,771.5 4410.83,771.5 4343.5,771.5C 4523.48,592.355 4703.64,413.355 4884,234.5C 4916.96,266.46 4949.63,298.793 4982,331.5C 4982.67,332.5 4982.67,333.5 4982,334.5C 4836.3,480.035 4690.8,625.701 4545.5,771.5 Z"/></g>
<g><path style="opacity:0.995" fill="#29c8a1" d="M 666.5,771.5 C 618.833,771.5 571.167,771.5 523.5,771.5C 523.5,606.167 523.5,440.833 523.5,275.5C 571.148,287.954 618.648,300.954 666,314.5C 666.5,466.833 666.667,619.166 666.5,771.5 Z"/></g>
<g><path style="opacity:0.996" fill="#29c8a1" d="M 1674.5,314.5 C 1937.83,314.5 2201.17,314.5 2464.5,314.5C 2464.5,361.833 2464.5,409.167 2464.5,456.5C 2201.17,456.5 1937.83,456.5 1674.5,456.5C 1674.5,409.167 1674.5,361.833 1674.5,314.5 Z"/></g>
</svg>
