<?xml version="1.0" encoding="UTF-8"?>
<!DOCTYPE svg PUBLIC "-//W3C//DTD SVG 1.1//EN" "http://www.w3.org/Graphics/SVG/1.1/DTD/svg11.dtd">
<svg xmlns="http://www.w3.org/2000/svg" version="1.1" width="152px" height="19px" style="shape-rendering:geometricPrecision; text-rendering:geometricPrecision; image-rendering:optimizeQuality; fill-rule:evenodd; clip-rule:evenodd" xmlns:xlink="http://www.w3.org/1999/xlink">
<g><path style="opacity:0.819" fill="#fefffe" d="M 2.5,-0.5 C 10.8333,-0.5 19.1667,-0.5 27.5,-0.5C 28.4578,5.74365 28.7912,12.077 28.5,18.5C 27.1667,18.5 25.8333,18.5 24.5,18.5C 24.5,13.5 24.5,8.5 24.5,3.5C 17.5,3.5 10.5,3.5 3.5,3.5C 3.5,8.5 3.5,13.5 3.5,18.5C 2.16667,18.5 0.833333,18.5 -0.5,18.5C -0.5,13.1667 -0.5,7.83333 -0.5,2.5C 0.5,2.5 1.5,2.5 2.5,2.5C 2.5,1.5 2.5,0.5 2.5,-0.5 Z"/></g>
<g><path style="opacity:0.777" fill="#fefffe" d="M 35.5,-0.5 C 44.1667,-0.5 52.8333,-0.5 61.5,-0.5C 61.5,0.833333 61.5,2.16667 61.5,3.5C 52.8333,3.5 44.1667,3.5 35.5,3.5C 35.2108,7.10636 35.5442,10.6064 36.5,14C 44.8267,14.4997 53.16,14.6664 61.5,14.5C 61.5,15.8333 61.5,17.1667 61.5,18.5C 52.8333,18.5 44.1667,18.5 35.5,18.5C 35.5,17.5 35.5,16.5 35.5,15.5C 34.1667,15.5 32.8333,15.5 31.5,15.5C 31.5,11.1667 31.5,6.83333 31.5,2.5C 32.8333,2.5 34.1667,2.5 35.5,2.5C 35.5,1.5 35.5,0.5 35.5,-0.5 Z"/></g>
<g><path style="opacity:0.793" fill="#fefffe" d="M 67.5,-0.5 C 76.1667,-0.5 84.8333,-0.5 93.5,-0.5C 93.5,0.833333 93.5,2.16667 93.5,3.5C 84.8333,3.5 76.1667,3.5 67.5,3.5C 67.2108,7.10636 67.5442,10.6064 68.5,14C 75.4921,14.4996 82.4921,14.6663 89.5,14.5C 89.5,13.1667 89.5,11.8333 89.5,10.5C 84.8333,10.5 80.1667,10.5 75.5,10.5C 75.5,9.16667 75.5,7.83333 75.5,6.5C 80.8437,6.33398 86.1771,6.50065 91.5,7C 94.1119,10.8308 94.1119,14.6642 91.5,18.5C 83.5,18.5 75.5,18.5 67.5,18.5C 67.5,17.5 67.5,16.5 67.5,15.5C 66.1667,15.5 64.8333,15.5 63.5,15.5C 63.5,11.1667 63.5,6.83333 63.5,2.5C 64.8333,2.5 66.1667,2.5 67.5,2.5C 67.5,1.5 67.5,0.5 67.5,-0.5 Z"/></g>
<g><path style="opacity:0.808" fill="#fefffe" d="M 99.5,-0.5 C 107.5,-0.5 115.5,-0.5 123.5,-0.5C 123.783,0.28913 124.283,0.955796 125,1.5C 125.499,7.15688 125.666,12.8236 125.5,18.5C 124.167,18.5 122.833,18.5 121.5,18.5C 121.5,13.5 121.5,8.5 121.5,3.5C 114.167,3.5 106.833,3.5 99.5,3.5C 99.5,8.5 99.5,13.5 99.5,18.5C 98.1667,18.5 96.8333,18.5 95.5,18.5C 95.5,13.1667 95.5,7.83333 95.5,2.5C 96.8333,2.5 98.1667,2.5 99.5,2.5C 99.5,1.5 99.5,0.5 99.5,-0.5 Z"/></g>
<g><path style="opacity:0.687" fill="#fefffe" d="M 109.5,18.5 C 107.5,18.5 105.5,18.5 103.5,18.5C 107.72,13.7759 112.22,9.10921 117,4.5C 118.678,5.46579 119.345,6.79913 119,8.5C 115.629,11.7025 112.462,15.0359 109.5,18.5 Z"/></g>
<g><path style="opacity:0.751" fill="#fefffe" d="M 15.5,18.5 C 14.1667,18.5 12.8333,18.5 11.5,18.5C 11.5,14.1667 11.5,9.83333 11.5,5.5C 12.8221,5.33003 13.9887,5.66337 15,6.5C 15.4988,10.4862 15.6655,14.4862 15.5,18.5 Z"/></g>
<g><path style="opacity:0.526" fill="#fefffe" d="M 151.5,6.5 C 151.5,8.16667 151.5,9.83333 151.5,11.5C 150.259,9.06879 149.092,9.06879 148,11.5C 145.045,11.3218 141.879,11.3218 138.5,11.5C 138.318,6.20631 137.818,6.20631 137,11.5C 136.801,9.59754 135.967,8.09754 134.5,7C 137.89,6.7537 141.223,6.2537 144.5,5.5C 146.453,6.02436 148.12,7.02436 149.5,8.5C 150.182,7.75731 150.849,7.09065 151.5,6.5 Z M 144.5,7.5 C 148.029,8.29732 148.195,9.29732 145,10.5C 143.272,9.64767 143.105,8.64767 144.5,7.5 Z"/></g>
<g><path style="opacity:0.806" fill="#fefffe" d="M 39.5,6.5 C 46.1667,6.5 52.8333,6.5 59.5,6.5C 59.5,7.83333 59.5,9.16667 59.5,10.5C 52.8333,10.5 46.1667,10.5 39.5,10.5C 39.5,9.16667 39.5,7.83333 39.5,6.5 Z"/></g>
<g><path style="opacity:0.197" fill="#fefffe" d="M 131.5,18.5 C 130.5,18.5 129.5,18.5 128.5,18.5C 128.167,17.1667 127.833,17.1667 127.5,18.5C 127.167,18.5 126.833,18.5 126.5,18.5C 126.5,17.5 126.5,16.5 126.5,15.5C 128.167,15.5 129.833,15.5 131.5,15.5C 131.5,16.5 131.5,17.5 131.5,18.5 Z"/></g>
</svg>
