<?xml version="1.0" encoding="UTF-8"?>
<!DOCTYPE svg PUBLIC "-//W3C//DTD SVG 1.1//EN" "http://www.w3.org/Graphics/SVG/1.1/DTD/svg11.dtd">
<svg xmlns="http://www.w3.org/2000/svg" version="1.1" width="608px" height="75px" style="shape-rendering:geometricPrecision; text-rendering:geometricPrecision; image-rendering:optimizeQuality; fill-rule:evenodd; clip-rule:evenodd" xmlns:xlink="http://www.w3.org/1999/xlink">
<g><path style="opacity:0.963" fill="#29c8a1" d="M 12.5,-0.5 C 43.5,-0.5 74.5,-0.5 105.5,-0.5C 107.151,0.970083 108.985,2.30342 111,3.5C 112,5.5 113,7.5 114,9.5C 114.5,31.1641 114.667,52.8308 114.5,74.5C 109.5,74.5 104.5,74.5 99.5,74.5C 99.5,54.1667 99.5,33.8333 99.5,13.5C 70.8333,13.5 42.1667,13.5 13.5,13.5C 13.5,33.8333 13.5,54.1667 13.5,74.5C 8.83333,74.5 4.16667,74.5 -0.5,74.5C -0.5,53.8333 -0.5,33.1667 -0.5,12.5C 3.83333,12.5 8.16667,12.5 12.5,12.5C 12.5,8.16667 12.5,3.83333 12.5,-0.5 Z"/></g>
<g><path style="opacity:0.981" fill="#29c8a1" d="M 143.5,-0.5 C 177.5,-0.5 211.5,-0.5 245.5,-0.5C 245.5,4.16667 245.5,8.83333 245.5,13.5C 211.833,13.5 178.167,13.5 144.5,13.5C 144.5,28.8333 144.5,44.1667 144.5,59.5C 178.167,59.5 211.833,59.5 245.5,59.5C 245.5,64.5 245.5,69.5 245.5,74.5C 211.5,74.5 177.5,74.5 143.5,74.5C 143.5,69.8333 143.5,65.1667 143.5,60.5C 138.833,60.5 134.167,60.5 129.5,60.5C 129.5,44.5 129.5,28.5 129.5,12.5C 134.167,12.5 138.833,12.5 143.5,12.5C 143.5,8.16667 143.5,3.83333 143.5,-0.5 Z"/></g>
<g><path style="opacity:0.979" fill="#29c8a1" d="M 271.5,-0.5 C 305.5,-0.5 339.5,-0.5 373.5,-0.5C 373.5,4.16667 373.5,8.83333 373.5,13.5C 339.833,13.5 306.167,13.5 272.5,13.5C 272.5,28.8333 272.5,44.1667 272.5,59.5C 301.167,59.5 329.833,59.5 358.5,59.5C 358.5,54.1667 358.5,48.8333 358.5,43.5C 340.5,43.5 322.5,43.5 304.5,43.5C 304.5,38.8333 304.5,34.1667 304.5,29.5C 324.169,29.3334 343.836,29.5 363.5,30C 369.338,32.167 372.504,36.3337 373,42.5C 373.667,48.5 373.667,54.5 373,60.5C 371.988,68.6769 367.488,73.3436 359.5,74.5C 330.167,74.5 300.833,74.5 271.5,74.5C 271.5,69.8333 271.5,65.1667 271.5,60.5C 266.833,60.5 262.167,60.5 257.5,60.5C 257.5,44.5 257.5,28.5 257.5,12.5C 262.167,12.5 266.833,12.5 271.5,12.5C 271.5,8.16667 271.5,3.83333 271.5,-0.5 Z"/></g>
<g><path style="opacity:0.973" fill="#29c9a1" d="M 399.5,-0.5 C 430.5,-0.5 461.5,-0.5 492.5,-0.5C 497.519,2.36134 500.352,6.69467 501,12.5C 501.5,33.164 501.667,53.8306 501.5,74.5C 496.5,74.5 491.5,74.5 486.5,74.5C 486.5,54.1667 486.5,33.8333 486.5,13.5C 457.833,13.5 429.167,13.5 400.5,13.5C 400.5,33.8333 400.5,54.1667 400.5,74.5C 395.5,74.5 390.5,74.5 385.5,74.5C 385.5,53.8333 385.5,33.1667 385.5,12.5C 390.167,12.5 394.833,12.5 399.5,12.5C 399.5,8.16667 399.5,3.83333 399.5,-0.5 Z"/></g>
<g><path style="opacity:0.971" fill="#29c9a2" d="M 436.5,74.5 C 429.833,74.5 423.167,74.5 416.5,74.5C 433.109,56.0573 450.609,38.3906 469,21.5C 472,24.5 475,27.5 478,30.5C 478.667,31.1667 478.667,31.8333 478,32.5C 463.965,46.3681 450.131,60.3681 436.5,74.5 Z"/></g>
<g><path style="opacity:0.964" fill="#29cca7" d="M 63.5,74.5 C 58.8333,74.5 54.1667,74.5 49.5,74.5C 49.5,58.1667 49.5,41.8333 49.5,25.5C 54.2428,26.5195 58.9095,27.8528 63.5,29.5C 64.8153,44.5634 64.8153,59.5634 63.5,74.5 Z"/></g>
<g><path style="opacity:0.908" fill="#29c9a2" d="M 541.5,26.5 C 546.5,26.5 551.5,26.5 556.5,26.5C 556.5,27.8333 556.5,29.1667 556.5,30.5C 554.5,30.5 552.5,30.5 550.5,30.5C 550.5,35.8333 550.5,41.1667 550.5,46.5C 549.167,46.5 547.833,46.5 546.5,46.5C 546.5,41.1667 546.5,35.8333 546.5,30.5C 544.833,30.5 543.167,30.5 541.5,30.5C 541.5,29.1667 541.5,27.8333 541.5,26.5 Z"/></g>
<g><path style="opacity:0.871" fill="#29c9a1" d="M 577.5,26.5 C 584.379,25.2511 588.379,27.9177 589.5,34.5C 588.448,34.6495 587.448,34.4828 586.5,34C 584.242,29.4449 581.075,28.6115 577,31.5C 573.976,37.1608 575.309,41.1608 581,43.5C 583.688,41.7 586.521,40.3666 589.5,39.5C 589.556,42.5608 588.222,44.7275 585.5,46C 574.45,48.0728 569.95,43.5728 572,32.5C 573.021,29.6499 574.854,27.6499 577.5,26.5 Z"/></g>
<g><path style="opacity:0.888" fill="#29c9a1" d="M 607.5,26.5 C 607.5,33.1667 607.5,39.8333 607.5,46.5C 606.5,46.5 605.5,46.5 604.5,46.5C 604.5,43.8333 604.5,41.1667 604.5,38.5C 601.5,38.5 598.5,38.5 595.5,38.5C 595.5,41.1667 595.5,43.8333 595.5,46.5C 594.167,46.5 592.833,46.5 591.5,46.5C 591.5,39.8333 591.5,33.1667 591.5,26.5C 592.833,26.5 594.167,26.5 595.5,26.5C 595.5,29.1667 595.5,31.8333 595.5,34.5C 598.5,34.5 601.5,34.5 604.5,34.5C 604.5,31.8333 604.5,29.1667 604.5,26.5C 605.5,26.5 606.5,26.5 607.5,26.5 Z"/></g>
<g><path style="opacity:0.884" fill="#29c9a2" d="M 557.5,26.5 C 561.833,26.5 566.167,26.5 570.5,26.5C 570.5,27.8333 570.5,29.1667 570.5,30.5C 567.5,30.5 564.5,30.5 561.5,30.5C 561.5,31.8333 561.5,33.1667 561.5,34.5C 564.167,34.5 566.833,34.5 569.5,34.5C 569.5,35.8333 569.5,37.1667 569.5,38.5C 566.833,38.5 564.167,38.5 561.5,38.5C 561.5,40.1667 561.5,41.8333 561.5,43.5C 564.5,43.5 567.5,43.5 570.5,43.5C 570.5,44.5 570.5,45.5 570.5,46.5C 566.167,46.5 561.833,46.5 557.5,46.5C 557.5,39.8333 557.5,33.1667 557.5,26.5 Z"/></g>
<g><path style="opacity:0.969" fill="#29c8a1" d="M 160.5,29.5 C 185.833,29.5 211.167,29.5 236.5,29.5C 236.5,34.1667 236.5,38.8333 236.5,43.5C 211.167,43.5 185.833,43.5 160.5,43.5C 160.5,38.8333 160.5,34.1667 160.5,29.5 Z"/></g>
<g><path style="opacity:0.741" fill="#28c8a0" d="M 511.5,74.5 C 510.833,74.5 510.167,74.5 509.5,74.5C 509.84,71.8559 509.173,69.5225 507.5,67.5C 509.833,66.1667 512.167,66.1667 514.5,67.5C 513.675,68.3857 512.675,68.719 511.5,68.5C 511.5,70.5 511.5,72.5 511.5,74.5 Z"/></g>
<g><path style="opacity:0.802" fill="#27c8a0" d="M 525.5,74.5 C 524.5,74.5 523.5,74.5 522.5,74.5C 522.167,71.8333 521.833,71.8333 521.5,74.5C 520.833,74.5 520.167,74.5 519.5,74.5C 518.305,70.7139 517.638,70.7139 517.5,74.5C 516.833,74.5 516.167,74.5 515.5,74.5C 515.5,71.8333 515.5,69.1667 515.5,66.5C 518.05,66.5608 519.55,67.8941 520,70.5C 520.687,67.5744 522.52,66.2411 525.5,66.5C 525.5,69.1667 525.5,71.8333 525.5,74.5 Z"/></g>
</svg>
