<svg xmlns="http://www.w3.org/2000/svg" xmlns:xlink="http://www.w3.org/1999/xlink" width="1946.691" height="237.434" viewBox="0 0 1946.691 237.434">
  <defs>
    <clipPath id="clip-path">
      <rect id="Rectangle_2" data-name="Rectangle 2" width="1946.691" height="237.434" fill="#fff"/>
    </clipPath>
  </defs>
  <g id="logo" transform="translate(0 0)">
    <path id="Path_1" data-name="Path 1" d="M528.9,86.954V34.614H510.11V25.939H557.5v8.674H538.713v52.34Z" transform="translate(1225.073 62.296)" fill="#fff"/>
    <path id="Path_2" data-name="Path 2" d="M525.839,86.954V25.939h39.434V34.4H535.655V51.877h25.9v8.038h-25.9V78.491h29.617v8.463Z" transform="translate(1262.848 62.296)" fill="#fff"/>
    <g id="Group_2" data-name="Group 2" transform="translate(0 0)">
      <g id="Group_1" data-name="Group 1" clip-path="url(#clip-path)">
        <path id="Path_3" data-name="Path 3" d="M568.772,88.645A31.068,31.068,0,0,1,552.8,84.625a27.224,27.224,0,0,1-10.6-11.171,34.748,34.748,0,0,1-3.724-16.29,34.91,34.91,0,0,1,3.7-16.29,27.273,27.273,0,0,1,10.558-11.191,33.094,33.094,0,0,1,29.005-1.313,24.727,24.727,0,0,1,9.521,7.722,26.491,26.491,0,0,1,4.8,11.637H585.95a17.54,17.54,0,0,0-3.279-7.089,15.517,15.517,0,0,0-5.922-4.589,19.253,19.253,0,0,0-7.977-1.609,18.754,18.754,0,0,0-10.454,2.942,19.281,19.281,0,0,0-6.98,8.123,27.034,27.034,0,0,0-2.452,11.7,27.612,27.612,0,0,0,2.433,11.974,18.244,18.244,0,0,0,6.939,7.912,19.475,19.475,0,0,0,10.473,2.793,18.791,18.791,0,0,0,8.229-1.755,16.063,16.063,0,0,0,5.986-4.844,16.807,16.807,0,0,0,3.089-7.024h10.157a25.4,25.4,0,0,1-4.443,11.593,24.519,24.519,0,0,1-9.5,7.936,30.605,30.605,0,0,1-13.477,2.854" transform="translate(1293.193 61.579)" fill="#fff"/>
        <path id="Path_4" data-name="Path 4" d="M557.81,86.954V25.939h9.817V51.581h29.662V25.939h9.773V86.954h-9.773v-26.7H567.626v26.7Z" transform="translate(1339.63 62.296)" fill="#fff"/>
        <path id="Path_5" data-name="Path 5" d="M478.109,67.361h8.807V85.171h4.531V67.361h8.776V63.4H478.109Z" transform="translate(1148.221 152.263)" fill="#fff"/>
        <path id="Path_6" data-name="Path 6" d="M508.551,63.4,500.36,79.94,492.142,63.4h-6.49v21.77h4.562V68.684l8.017,16.334.075.153h4.082l8.1-16.488V85.171h4.528V63.4Z" transform="translate(1166.336 152.263)" fill="#fff"/>
        <path id="Path_7" data-name="Path 7" d="M47.443,24.939,90.99,37.055V177.541H47.443Z" transform="translate(113.938 59.892)" fill="#fff"/>
        <path id="Path_8" data-name="Path 8" d="M366.307,43.542V237.429H322.743V43.542H48.7a5.138,5.138,0,0,0-5.136,5.136V237.429H0V43.542H38.431a5.141,5.141,0,0,0,5.136-5.136V0h279.2a43.554,43.554,0,0,1,43.54,43.54" transform="translate(0 0.004)" fill="#fff"/>
        <path id="Path_9" data-name="Path 9" d="M287.107,48.679V188.753a5.141,5.141,0,0,0,5.136,5.136H566.282v-53.4H393.91V96.944H566.282a43.554,43.554,0,0,1,43.54,43.54v53.4a43.554,43.554,0,0,1-43.54,43.54H287.107v-38.4a5.138,5.138,0,0,0-5.136-5.136H243.543V43.542H281.97a5.141,5.141,0,0,0,5.136-5.136V0H609.822v43.54H292.243a5.141,5.141,0,0,0-5.136,5.136" transform="translate(584.89 0.004)" fill="#fff"/>
        <path id="Path_10" data-name="Path 10" d="M730.314,43.54V237.427h-43.54V43.54H412.712a5.139,5.139,0,0,0-5.137,5.136V237.427H364.032V43.54h38.4a5.141,5.141,0,0,0,5.139-5.136V0h279.2a43.554,43.554,0,0,1,43.54,43.54" transform="translate(874.255 0)" fill="#fff"/>
        <rect id="Rectangle_1" data-name="Rectangle 1" width="242.645" height="43.547" transform="translate(515.524 96.945)" fill="#fff"/>
        <path id="Path_11" data-name="Path 11" d="M166.6,48.679V188.753a5.14,5.14,0,0,0,5.136,5.136h317.6v43.54H166.6v-38.4a5.138,5.138,0,0,0-5.136-5.136h-38.4V43.542h38.4a5.141,5.141,0,0,0,5.136-5.136V0H489.336v43.54h-317.6a5.141,5.141,0,0,0-5.136,5.136" transform="translate(295.53 0.004)" fill="#fff"/>
        <path id="Path_12" data-name="Path 12" d="M559.14,21.241l30.247,30.247L454.436,186.415H392.867Z" transform="translate(943.503 51.012)" fill="#fff"/>
      </g>
    </g>
  </g>
</svg>
